<svg xmlns="http://www.w3.org/2000/svg" 
width="100"
        height="240"


viewBox="0 0 1440 320">
<path 
fill="#111111" 
fill-opacity="1" 
d="M0,224L40,213.3C80,203,160,181,240,154.7C320,128,400,96,480,106.7C560,117,640,171,720,208C800,245,880,267,960,229.3C1040,192,1120,96,1200,85.3C1280,75,1360,149,1400,186.7L1440,224L1440,320L1400,320C1360,320,1280,320,1200,320C1120,320,1040,320,960,320C880,320,800,320,720,320C640,320,560,320,480,320C400,320,320,320,240,320C160,320,80,320,40,320L0,320Z">
</path>
</svg>