<?xml version="1.0" standalone="no"?>
    <svg 
        xmlns="http://www.w3.org/2000/svg" 
        width="100"
        height="240"
        viewBox="0 0 1440 320">
        <path 
            fill="#ff7f7f" 
            fill-opacity="1" 
            d="M0,128L26.7,149.3C53.3,171,107,213,160,240C213.3,267,267,277,320,261.3C373.3,245,427,203,480,160C533.3,117,587,75,640,58.7C693.3,43,747,53,800,85.3C853.3,117,907,171,960,213.3C1013.3,256,1067,288,1120,266.7C1173.3,245,1227,171,1280,128C1333.3,85,1387,75,1413,69.3L1440,64L1440,320L1413.3,320C1386.7,320,1333,320,1280,320C1226.7,320,1173,320,1120,320C1066.7,320,1013,320,960,320C906.7,320,853,320,800,320C746.7,320,693,320,640,320C586.7,320,533,320,480,320C426.7,320,373,320,320,320C266.7,320,213,320,160,320C106.7,320,53,320,27,320L0,320Z">
        </path>
    </svg>